# xmcd CD database file
#
# Track frame offsets:
#	150
#	16105
#	37025
#	52970
#
# Disc length: 981 seconds
#
# Revision: 1
# Processed by: cddbd v1.5.1PL2 Copyright (c) Steve Scherf et al.
# Submitted via: CD2WAV32(JP) R3.22
#
DISCID=2603d304
DTITLE=増田惠子 - 奇蹟の花
DYEAR=2005
DGENRE=JPop
TTITLE0=奇蹟の花(日本テレビ系全国ネット「アンテナ22」エンディング・テーマ)
TTITLE1=すずめ(アコースティック・バージョン'05)
TTITLE2=奇蹟の花(オリジナル・カラオケ)
TTITLE3=すずめ(アコースティック・バージョン'05|オリジナル・カラオケ)
EXTD=
EXTT0=
EXTT1=
EXTT2=
EXTT3=
PLAYORDER=
